<?xml version="1.0" encoding="UTF-8" standalone="no"?>
<!-- Created with Inkscape (http://www.inkscape.org/) -->

<svg
   xmlns:dc="http://purl.org/dc/elements/1.1/"
   xmlns:cc="http://creativecommons.org/ns#"
   xmlns:rdf="http://www.w3.org/1999/02/22-rdf-syntax-ns#"
   xmlns:svg="http://www.w3.org/2000/svg"
   xmlns="http://www.w3.org/2000/svg"
   xmlns:sodipodi="http://sodipodi.sourceforge.net/DTD/sodipodi-0.dtd"
   xmlns:inkscape="http://www.inkscape.org/namespaces/inkscape"
   width="1300"
   height="2000"
   viewBox="0 0 1300 2000"
   version="1.1"
   id="svg8"
   style="shape-rendering:crispEdges"
   inkscape:version="0.92.2 5c3e80d, 2017-08-06"
   sodipodi:docname="JOKER.svg">
  <defs
     id="defs2" />
  <sodipodi:namedview
     id="base"
     pagecolor="#ffffff"
     bordercolor="#666666"
     borderopacity="1.0"
     inkscape:pageopacity="0.0"
     inkscape:pageshadow="2"
     inkscape:zoom="0.609"
     inkscape:cx="-589.73728"
     inkscape:cy="1000"
     inkscape:document-units="px"
     inkscape:current-layer="layer8"
     showgrid="true"
     units="px"
     showguides="false"
     inkscape:snap-tangential="true"
     inkscape:snap-perpendicular="true"
     inkscape:window-width="2560"
     inkscape:window-height="1395"
     inkscape:window-x="0"
     inkscape:window-y="1"
     inkscape:window-maximized="1">
    <inkscape:grid
       type="xygrid"
       id="grid156"
       dotted="true" />
  </sodipodi:namedview>
  <metadata
     id="metadata5">
    <rdf:RDF>
      <cc:Work
         rdf:about="">
        <dc:format>image/svg+xml</dc:format>
        <dc:type
           rdf:resource="http://purl.org/dc/dcmitype/StillImage" />
        <dc:title />
      </cc:Work>
    </rdf:RDF>
  </metadata>
  <g
     inkscape:label="Scan"
     inkscape:groupmode="layer"
     id="layer1"
     transform="translate(0,232.16664)"
     sodipodi:insensitive="true" />
  <g
     inkscape:groupmode="layer"
     id="layer3"
     inkscape:label="Gold"
     sodipodi:insensitive="true">
    <path
       style="opacity:1;fill:#ffff00;fill-opacity:1;stroke:none;stroke-width:10;stroke-linecap:round;stroke-linejoin:round;stroke-miterlimit:4;stroke-dasharray:none;stroke-dashoffset:0;stroke-opacity:1;shape-rendering:crispEdges"
       d="M 1095,1000 A 445,445 0 0 1 650,1445 445,445 0 0 1 205,1000 445,445 0 0 1 650,555 445,445 0 0 1 1095,1000 Z"
       id="circle823"
       inkscape:connector-curvature="0" />
  </g>
  <g
     inkscape:groupmode="layer"
     id="layer4"
     inkscape:label="Red"
     style="display:inline">
    <path
       style="fill:#ff2900;fill-opacity:1;fill-rule:evenodd;stroke:none;stroke-width:25;stroke-linecap:round;stroke-linejoin:round;stroke-miterlimit:4;stroke-dasharray:none;stroke-opacity:1;shape-rendering:crispEdges"
       d="M 317.05664,1294.416 100,1620 l 220,-60 40,240 140,-200 160,200 40,-200 180,180 60,-220 260,60 -236.67969,-304.3027 A 445,445 0 0 1 650,1445 445,445 0 0 1 317.05664,1294.416 Z"
       id="path837" />
    <path
       style="fill:#ff2900;fill-opacity:1;fill-rule:evenodd;stroke:none;stroke-width:25;stroke-linecap:round;stroke-linejoin:round;stroke-miterlimit:4;stroke-dasharray:none;stroke-opacity:1;shape-rendering:crispEdges"
       d="M 831.71484,249.10742 C 687.94378,262.65874 542.4812,256.33752 420,520 369.08062,331.38331 278.61481,370.61289 187.77148,412.01367 a 75,75 0 0 1 2.52344,19.12695 75,75 0 0 1 -16.78515,47.19532 c 66.827,55.25537 117.57478,127.8247 155.77539,213.90429 A 445,445 0 0 1 650,555 445,445 0 0 1 924.33984,650.26562 c 42.39917,-50.4556 91.60026,-93.34711 167.51176,-106.5332 a 75,75 0 0 1 -0.6524,-9.14258 75,75 0 0 1 14.6172,-44.3457 C 1026.3517,437.47479 931.12146,446.83238 840,440 761.98041,388.07638 804.10248,338.17898 853.51758,288.4043 a 75,75 0 0 1 -21.80274,-39.29688 z"
       id="path913" />
  </g>
  <g
     inkscape:groupmode="layer"
     id="layer8"
     inkscape:label="Thin" />
  <g
     inkscape:groupmode="layer"
     id="layer5"
     inkscape:label="Blue"
     style="display:inline"
     sodipodi:insensitive="true">
    <path
       id="circle829"
       style="opacity:1;fill:#0cffff;fill-opacity:1;stroke:none;stroke-width:10;stroke-linecap:round;stroke-linejoin:round;stroke-miterlimit:4;stroke-dasharray:none;stroke-dashoffset:0;stroke-opacity:1;shape-rendering:crispEdges"
       d="m 879.65521,937.6026 a 40,40 0 0 1 -40,40 40,40 0 0 1 -40,-40 40,40 0 0 1 40,-40 40,40 0 0 1 40,40 z m -379.31039,0 a 40,40 0 0 1 -40,40 40,40 0 0 1 -40,-40 40,40 0 0 1 40,-40 40,40 0 0 1 40,40 z"
       inkscape:connector-curvature="0" />
  </g>
  <g
     inkscape:groupmode="layer"
     id="layer6"
     inkscape:label="Black"
     sodipodi:insensitive="true"
     style="display:inline" />
  <g
     inkscape:groupmode="layer"
     id="layer7"
     inkscape:label="Stroke"
     style="display:inline"
     sodipodi:insensitive="true">
    <path
       style="fill:none;fill-rule:evenodd;stroke:#00ffef;stroke-width:6;stroke-linecap:round;stroke-linejoin:round;stroke-miterlimit:4;stroke-dasharray:none;stroke-opacity:1"
       d="M 317.05664,1294.416 100,1620 l 220,-60 40,240 140,-200 160,200 40,-200 180,180 60,-220 260,60 -236.67969,-304.3027"
       id="path840"
       inkscape:connector-curvature="0"
       sodipodi:nodetypes="ccccccccccc" />
    <path
       style="fill:none;fill-rule:evenodd;stroke:#00ffef;stroke-width:6;stroke-linecap:round;stroke-linejoin:round;stroke-miterlimit:4;stroke-dasharray:none;stroke-opacity:1"
       d="m 1241.1987,534.58948 a 75,75 0 0 1 -75,75 75,75 0 0 1 -75,-75 75,75 0 0 1 75,-75 75,75 0 0 1 75,75 z"
       id="path838"
       inkscape:connector-curvature="0" />
    <path
       style="fill:none;fill-rule:evenodd;stroke:#00ffef;stroke-width:6;stroke-linecap:round;stroke-linejoin:round;stroke-miterlimit:4;stroke-dasharray:none;stroke-opacity:1"
       d="m 980.11493,234.09686 a 75,75 0 0 1 -75,75 75,75 0 0 1 -75,-75 75,75 0 0 1 75,-75 75,75 0 0 1 75,75 z"
       id="path836"
       inkscape:connector-curvature="0" />
    <path
       style="fill:none;fill-rule:evenodd;stroke:#00ffef;stroke-width:6;stroke-linecap:round;stroke-linejoin:round;stroke-miterlimit:4;stroke-dasharray:none;stroke-opacity:1"
       d="m 190.29556,431.1412 a 75,75 0 0 1 -75,75 75,75 0 0 1 -74.999997,-75 75,75 0 0 1 74.999997,-75 75,75 0 0 1 75,75 z"
       id="path834"
       inkscape:connector-curvature="0" />
    <path
       style="fill:none;fill-rule:evenodd;stroke:#00ffef;stroke-width:6;stroke-linecap:round;stroke-linejoin:round;stroke-miterlimit:4;stroke-dasharray:none;stroke-opacity:1"
       d="m 924.3457,650.27148 c 42.40088,-50.45397 91.5936,-93.35356 167.5059,-106.53906 -0.4037,-3.03138 -0.6215,-6.0846 -0.6524,-9.14258 0.03,-15.96068 5.1503,-31.4957 14.6172,-44.3457 C 1026.3517,437.47479 931.12146,446.83238 840,440 761.98041,388.07638 804.10248,338.17898 853.51758,288.4043 842.40414,277.84182 834.79487,264.12701 831.71484,249.10742 687.94378,262.65874 542.4812,256.33752 420,520 369.08062,331.38331 278.61481,370.61289 187.77148,412.01367 c 1.66108,6.24042 2.50924,12.66925 2.52344,19.12695 -0.0209,17.1896 -5.94587,33.85038 -16.7832,47.19336 66.82714,55.25532 117.5686,127.8306 155.76953,213.91016"
       id="path832"
       inkscape:connector-curvature="0"
       sodipodi:nodetypes="cccccccccccc" />
    <path
       style="fill:none;fill-rule:evenodd;stroke:#00ffef;stroke-width:6;stroke-linecap:round;stroke-linejoin:round;stroke-miterlimit:4;stroke-dasharray:none;stroke-opacity:1"
       d="m 384.88867,1140 c 51.89013,98.343 153.91815,159.9189 265.11133,160 111.19809,-0.076 213.23257,-61.6527 265.125,-160"
       id="path830"
       inkscape:connector-curvature="0" />
    <path
       style="fill:none;fill-rule:evenodd;stroke:#00ffef;stroke-width:6;stroke-linecap:round;stroke-linejoin:round;stroke-miterlimit:4;stroke-dasharray:none;stroke-opacity:1"
       d="M 1095,1000 A 445,445 0 0 1 650,1445 445,445 0 0 1 205,1000 445,445 0 0 1 650,555 445,445 0 0 1 1095,1000 Z"
       id="path911"
       inkscape:connector-curvature="0" />
  </g>
  <g
     inkscape:groupmode="layer"
     id="layer2"
     inkscape:label="Box"
     sodipodi:insensitive="true"
     style="display:inline">
    <rect
       style="opacity:1;fill:none;fill-opacity:1;stroke:#00ff00;stroke-width:1;stroke-linecap:round;stroke-linejoin:round;stroke-miterlimit:4;stroke-dasharray:none;stroke-dashoffset:0;stroke-opacity:1"
       id="rect159"
       width="1300"
       height="2000"
       x="0"
       y="0" />
    <path
       transform="translate(0,232.16664)"
       id="path968"
       style="fill:none;fill-rule:evenodd;stroke:#00bb00;stroke-width:2;stroke-linecap:butt;stroke-linejoin:miter;stroke-miterlimit:4;stroke-dasharray:none;stroke-opacity:1;shape-rendering:crispEdges"
       d="m 650,707.83336 v 120 m -60,-60 h 120"
       inkscape:connector-curvature="0" />
  </g>
</svg>
